<svg xmlns="http://www.w3.org/2000/svg" viewBox="0 0 1600 900" width="1600" height="900" role="img" aria-label="DotTraceIP">
  <title>DotTraceIP</title>
  <defs>
    <linearGradient id="dti-bg" x1="0" y1="0" x2="1" y2="1">
      <stop offset="0" stop-color="#0a0b0d"/>
      <stop offset="0.5" stop-color="#14161a"/>
      <stop offset="1" stop-color="#0b0c0e"/>
    </linearGradient>
    <radialGradient id="dti-glow" cx="70%" cy="20%" r="62%">
      <stop offset="0" stop-color="#ffffff" stop-opacity="0.14"/>
      <stop offset="0.5" stop-color="#ffffff" stop-opacity="0.04"/>
      <stop offset="1" stop-color="#ffffff" stop-opacity="0"/>
    </radialGradient>
    <radialGradient id="dti-halo" cx="50%" cy="50%" r="50%">
      <stop offset="0" stop-color="#ffffff" stop-opacity="0.1"/>
      <stop offset="1" stop-color="#ffffff" stop-opacity="0"/>
    </radialGradient>
  </defs>
  <rect width="1600" height="900" fill="url(#dti-bg)"/>
  <rect width="1600" height="900" fill="url(#dti-glow)"/>
  <g opacity="0.045" stroke="#ffffff" stroke-width="1">
    <path d="M0 225 H1600 M0 450 H1600 M0 675 H1600 M400 0 V900 M800 0 V900 M1200 0 V900"/>
  </g>
  <circle cx="1180" cy="460" r="330" fill="url(#dti-halo)"/>
  <svg x="965" y="245" width="430" height="430" viewBox="0 0 48 48">
    <g opacity="0.1" fill="none" stroke="#ffffff" stroke-width="2.6" stroke-linecap="round" stroke-linejoin="round">
      <circle cx="24" cy="24" r="4"/>
      <circle cx="8" cy="12" r="3"/>
      <circle cx="40" cy="12" r="3"/>
      <circle cx="8" cy="36" r="3"/>
      <circle cx="40" cy="36" r="3"/>
      <path d="M11 14 L21 21 M37 14 L27 21 M11 34 L21 27 M37 34 L27 27"/>
    </g>
  </svg>
  <svg x="140" y="118" width="86" height="86" viewBox="0 0 48 48">
    <g fill="none" stroke="#f3f3f1" stroke-width="2.6" stroke-linecap="round" stroke-linejoin="round">
      <circle cx="24" cy="24" r="4"/>
      <circle cx="8" cy="12" r="3"/>
      <circle cx="40" cy="12" r="3"/>
      <circle cx="8" cy="36" r="3"/>
      <circle cx="40" cy="36" r="3"/>
      <path d="M11 14 L21 21 M37 14 L27 21 M11 34 L21 27 M37 34 L27 27"/>
    </g>
  </svg>
  <text x="138" y="408" font-family="Inter, Arial, sans-serif" font-size="132" font-weight="800" fill="#f3f3f1" letter-spacing="-3">.трейс</text>
  <text x="146" y="470" font-family="Inter, Arial, sans-serif" font-size="34" font-weight="700" fill="#f3f3f1">DotTraceIP</text>
  <text x="146" y="516" font-family="Inter, Arial, sans-serif" font-size="26" fill="#a6a7ab">массовый сбор данных об IP через прокси</text>
</svg>
